<svg width="38" height="38" viewBox="0 0 38 38" fill="none" xmlns="http://www.w3.org/2000/svg">
<rect width="38" height="38" rx="19" fill="#7839CD"/>
<path d="M16.6932 17.5C16.5838 17.1652 16.4396 16.8653 16.2607 16.6001C16.085 16.3317 15.8745 16.103 15.6293 15.9141C15.3873 15.7251 15.1122 15.581 14.804 15.4815C14.4957 15.3821 14.1577 15.3324 13.7898 15.3324C13.1866 15.3324 12.638 15.4882 12.1442 15.7997C11.6503 16.1113 11.2576 16.5703 10.9659 17.1768C10.6742 17.7834 10.5284 18.5275 10.5284 19.4091C10.5284 20.2907 10.6759 21.0348 10.9709 21.6413C11.2659 22.2479 11.6652 22.7069 12.169 23.0185C12.6728 23.33 13.2396 23.4858 13.8693 23.4858C14.4527 23.4858 14.9664 23.3615 15.4105 23.1129C15.858 22.861 16.206 22.5064 16.4545 22.049C16.7064 21.5883 16.8324 21.0464 16.8324 20.4233L17.2102 20.5028H14.1477V19.4091H18.0256V20.5028C18.0256 21.3414 17.8466 22.0705 17.4886 22.6903C17.134 23.3101 16.6435 23.7907 16.017 24.1321C15.3939 24.4702 14.678 24.6392 13.8693 24.6392C12.9678 24.6392 12.1757 24.4271 11.4929 24.0028C10.8134 23.5786 10.2831 22.9754 9.90199 22.1932C9.52415 21.411 9.33523 20.483 9.33523 19.4091C9.33523 18.6037 9.44295 17.8795 9.65838 17.2365C9.87713 16.5902 10.1854 16.04 10.5831 15.5859C10.9808 15.1319 11.4515 14.7839 11.995 14.5419C12.5386 14.3 13.1368 14.179 13.7898 14.179C14.3267 14.179 14.8272 14.2602 15.2912 14.4226C15.7585 14.5817 16.1745 14.8087 16.5391 15.1037C16.907 15.3954 17.2135 15.745 17.4588 16.1527C17.7041 16.5571 17.8731 17.0062 17.9659 17.5H16.6932ZM20.1373 24.5V14.3182H21.3702V18.8523H26.7992V14.3182H28.0321V24.5H26.7992V19.946H21.3702V24.5H20.1373Z" fill="white"/>
</svg>
