<svg width="56" height="56" viewBox="0 0 56 56" fill="none" xmlns="http://www.w3.org/2000/svg">
<rect width="56" height="56" fill="#1E1E1E"/>
<g clip-path="url(#clip0_0_1)">
<rect width="1920" height="2024" transform="translate(-850 -42)" fill="#FAFAFA"/>
<g clip-path="url(#clip1_0_1)">
<rect x="-17" y="-20" width="212" height="97" rx="20" fill="white"/>
<circle cx="28" cy="28" r="28" fill="#F4F7FE"/>
</g>
<g clip-path="url(#clip2_0_1)">
<path d="M37.6055 35.2109H34.0898C31.6641 35.2109 29.6953 37.1797 29.6953 39.6055V43.1211C29.6953 43.6133 30.082 44 30.5742 44H41.1211C41.6133 44 42 43.6133 42 43.1211V39.6055C42 37.1797 40.0312 35.2109 37.6055 35.2109Z" fill="#2B75AD"/>
<path d="M42 39.6055V43.1211C42 43.6133 41.6133 44 41.1211 44H35.8477V35.2109H37.6055C40.0312 35.2109 42 37.1797 42 39.6055Z" fill="#2B75AD"/>
<path d="M19.9102 35.2109H16.3945C13.9687 35.2109 12 37.1797 12 39.6055V43.1211C12 43.6133 12.3867 44 12.8789 44H23.4258C23.918 44 24.3047 43.6133 24.3047 43.1211V39.6055C24.3047 37.1797 22.3359 35.2109 19.9102 35.2109Z" fill="#CF0404"/>
<path d="M24.3047 39.6055V43.1211C24.3047 43.6133 23.918 44 23.4258 44H18.1523V35.2109H19.9102C22.3359 35.2109 24.3047 37.1797 24.3047 39.6055Z" fill="#CF0404"/>
<path d="M18.1523 29.9375C16.2188 29.9375 14.6367 31.5196 14.6367 33.4531C14.6367 35.3867 16.2188 36.9688 18.1523 36.9688C20.0859 36.9688 21.668 35.3867 21.668 33.4531C21.668 31.5196 20.0859 29.9375 18.1523 29.9375Z" fill="#FF3F2E"/>
<path d="M35.8477 29.9375C33.9141 29.9375 32.332 31.5196 32.332 33.4531C32.332 35.3867 33.9141 36.9688 35.8477 36.9688C37.7812 36.9688 39.3633 35.3867 39.3633 33.4531C39.3633 31.5196 37.7812 29.9375 35.8477 29.9375Z" fill="#4AB8F7"/>
<path d="M39.3633 33.4531C39.3633 35.3867 37.7812 36.9688 35.8477 36.9688V29.9375C37.7812 29.9375 39.3633 31.5196 39.3633 33.4531Z" fill="#1EA1E3"/>
<path d="M21.668 33.4531C21.668 35.3867 20.0859 36.9688 18.1523 36.9688V29.9375C20.0859 29.9375 21.668 31.5196 21.668 33.4531Z" fill="#CF0404"/>
<path d="M35.7891 16.127C35.2441 15.8809 34.6464 15.7578 34.0312 15.7578H28.2831C27.8437 15.7578 27.4746 16.0918 27.4218 16.5313L26.121 27.0781C26.0682 27.6055 26.4726 28.0625 26.9999 28.0625H30.1464L33.416 31.3144C33.961 31.8769 34.9102 31.4902 34.9102 30.6992V27.9746C35.2089 27.9218 35.5079 27.8163 35.7891 27.6933C37.3359 27.0253 38.4258 25.4786 38.4258 23.668V20.1523C38.4258 18.3417 37.3359 16.795 35.7891 16.127Z" fill="#355382"/>
<path d="M27 14H19.9688C19.3536 14 18.7559 14.123 18.2109 14.3692C16.6641 15.0372 15.5742 16.5839 15.5742 18.3945V23.668C15.5742 25.4786 16.6641 27.0253 18.2109 27.6933C18.4921 27.8163 18.7911 27.9218 19.0898 27.9746V30.6992C19.0898 31.4902 20.039 31.8769 20.5839 31.3144L23.4844 28.4317L23.8536 28.0625H27C29.4258 28.0625 31.3945 26.0938 31.3945 23.668V18.3945C31.3945 15.9687 29.4258 14 27 14Z" fill="#FFDA45"/>
<path d="M26.7363 19.0097L23.4844 22.2617C23.015 22.7308 22.5121 23.0746 21.9903 22.5253L20.2325 20.7675C19.8809 20.4335 19.8809 19.8712 20.2325 19.5371C20.5665 19.1855 21.1288 19.1855 21.4629 19.5371L22.6055 20.6621L23.4844 19.7831L25.5059 17.7793C25.8399 17.4277 26.4023 17.4277 26.7363 17.7793C27.0879 18.1133 27.0879 18.6757 26.7363 19.0097Z" fill="#3F6199"/>
</g>
</g>
<defs>
<clipPath id="clip0_0_1">
<rect width="1920" height="2024" fill="white" transform="translate(-850 -42)"/>
</clipPath>
<clipPath id="clip1_0_1">
<rect x="-17" y="-20" width="212" height="97" rx="20" fill="white"/>
</clipPath>
<clipPath id="clip2_0_1">
<rect width="30" height="30" fill="white" transform="translate(12 14)"/>
</clipPath>
</defs>
</svg>
