<svg width="56" height="56" viewBox="0 0 56 56" fill="none" xmlns="http://www.w3.org/2000/svg">
<rect width="56" height="56" fill="#1E1E1E"/>
<g clip-path="url(#clip0_0_1)">
<rect width="1920" height="2024" transform="translate(-1199 -42)" fill="#FAFAFA"/>
<g clip-path="url(#clip1_0_1)">
<rect x="-17" y="-20" width="212" height="97" rx="20" fill="white"/>
<circle cx="28" cy="28" r="28" fill="#F4F7FE"/>
</g>
<g clip-path="url(#clip2_0_1)">
<path d="M40.4805 26.6025C39.7904 26.6025 39.2305 26.0426 39.2305 25.3526C39.2305 21.8463 37.8655 18.5513 35.3867 16.0712C34.898 15.5825 34.898 14.7926 35.3867 14.3038C35.8754 13.8151 36.6655 13.8151 37.1541 14.3038C40.1056 17.255 41.7304 21.1789 41.7304 25.3526C41.7304 26.0426 41.1705 26.6025 40.4805 26.6025Z" fill="#4CAF50"/>
<path d="M15.4804 26.6025C14.7905 26.6025 14.2305 26.0426 14.2305 25.3526C14.2305 21.1789 15.8555 17.255 18.8067 14.3038C19.2954 13.8151 20.0855 13.8151 20.5742 14.3038C21.063 14.7926 21.063 15.5825 20.5742 16.0712C18.0954 18.55 16.7305 21.8463 16.7305 25.3526C16.7305 26.0426 16.1705 26.6025 15.4804 26.6025Z" fill="#4CAF50"/>
<path d="M32.9805 38C32.9805 40.7615 30.742 43 27.9806 43C25.2191 43 22.9804 40.7615 22.9804 38C22.9804 35.2386 25.2191 32.9999 27.9806 32.9999C30.742 32.9999 32.9805 35.2386 32.9805 38Z" fill="#FFC107"/>
<path d="M27.9806 17.9999C27.2905 17.9999 26.7304 17.4401 26.7304 16.75V14.2499C26.7304 13.5601 27.2905 13 27.9806 13C28.6704 13 29.2305 13.5601 29.2305 14.2499V16.75C29.2305 17.4401 28.6704 17.9999 27.9806 17.9999Z" fill="#FFA000"/>
<path d="M39.7043 34.14C37.8142 32.5424 36.7305 30.2088 36.7305 27.735V24.25C36.7305 19.425 32.8042 15.5001 27.9805 15.5001C23.1566 15.5001 19.2304 19.425 19.2304 24.25V27.735C19.2304 30.2088 18.1466 32.5438 16.2455 34.1512C15.7592 34.5662 15.4804 35.1725 15.4804 35.8125C15.4804 37.0189 16.4616 38.0001 17.668 38.0001H38.293C39.4992 38.0001 40.4805 37.0189 40.4805 35.8125C40.4805 35.1725 40.2017 34.5662 39.7043 34.14Z" fill="#FFC107"/>
</g>
</g>
<defs>
<clipPath id="clip0_0_1">
<rect width="1920" height="2024" fill="white" transform="translate(-1199 -42)"/>
</clipPath>
<clipPath id="clip1_0_1">
<rect x="-17" y="-20" width="212" height="97" rx="20" fill="white"/>
</clipPath>
<clipPath id="clip2_0_1">
<rect width="30" height="30" fill="white" transform="translate(13 13)"/>
</clipPath>
</defs>
</svg>
