<svg width="56" height="56" viewBox="0 0 56 56" fill="none" xmlns="http://www.w3.org/2000/svg">
<circle cx="28" cy="28" r="28" fill="#F4F7FE"/>
<g clip-path="url(#clip0_173_68)">
<path d="M25.7857 22.1786C25.7857 21.8827 26.0255 21.6428 26.3214 21.6428C26.6173 21.6428 26.8572 21.8827 26.8572 22.1786V25.9286H31.1429V22.1786C31.1429 21.8827 31.3827 21.6428 31.6786 21.6428C31.9744 21.6428 32.2143 21.8827 32.2143 22.1786V25.9286H33.2858V22.1786C33.284 20.6999 32.0858 19.5018 30.6072 19.5H27.3929C25.9143 19.5018 24.7161 20.7 24.7144 22.1786V25.9286H25.7858V22.1786H25.7857Z" fill="#356CF9"/>
<path d="M29 18.4286C30.7752 18.4286 32.2143 16.9895 32.2143 15.2143C32.2143 13.4391 30.7752 12 29 12C27.2248 12 25.7857 13.4391 25.7857 15.2143C25.7857 16.9895 27.2248 18.4286 29 18.4286Z" fill="#356CF9"/>
<path d="M40.3035 31.9912L42.6945 36.136C43.1818 35.7325 43.464 35.1327 43.4643 34.5V27C43.4625 25.5214 42.2643 24.3232 40.7857 24.3214C39.3074 24.324 38.1098 25.5218 38.1072 27V28.1785L38.1366 28.2294L38.9107 26.8735C39.061 26.6244 39.3826 26.5408 39.6352 26.6851C39.8878 26.8294 39.979 27.149 39.8407 27.4049L38.2379 30.2104C38.0469 30.5444 37.6915 30.7503 37.3068 30.7499H34.4541C34.0225 30.7334 33.6465 31.0418 33.5782 31.4683C33.5537 31.6959 33.6278 31.9231 33.7818 32.0924C33.9332 32.262 34.1501 32.3584 34.3775 32.3571H38.1387C38.5855 32.3564 38.9979 32.1172 39.2203 31.7298L41.1976 28.269C41.3479 28.02 41.6695 27.9363 41.9221 28.0807C42.1747 28.225 42.266 28.5446 42.1276 28.8005L40.3035 31.9912Z" fill="#356CF9"/>
<path d="M23.5459 29.6785C24.5267 29.6657 25.3616 30.3896 25.4879 31.3623C25.542 31.8901 25.37 32.4161 25.0144 32.8099C24.6589 33.2038 24.1531 33.4285 23.6225 33.4285H19.8613C19.3299 33.4271 18.815 33.2431 18.4031 32.9073L14.3937 39.8571H43.6062L39.597 32.9073C39.185 33.2431 38.6702 33.4272 38.1387 33.4286H34.3775C33.8469 33.4286 33.3411 33.2039 32.9856 32.81C32.63 32.4162 32.458 31.8901 32.5121 31.3623C32.6384 30.3896 33.4733 29.6658 34.4541 29.6786H37.3068L37.521 29.3036L36.3468 27.2679C36.2503 27.1007 36.0715 26.9984 35.8785 27H22.1214C21.9281 26.9981 21.7488 27.1005 21.6522 27.2679L20.4789 29.3036L20.6932 29.6786H23.5459V29.6785Z" fill="#356CF9"/>
<path d="M14.5357 42H43.4643C43.7601 42 44 41.7602 44 41.4643V40.9286H14V41.4643C14 41.7602 14.2398 42 14.5357 42Z" fill="#356CF9"/>
<path d="M17.2143 23.25C18.9895 23.25 20.4286 21.8109 20.4286 20.0357C20.4286 18.2605 18.9895 16.8214 17.2143 16.8214C15.4391 16.8214 14 18.2605 14 20.0357C14 21.8109 15.4391 23.25 17.2143 23.25Z" fill="#356CF9"/>
<path d="M40.7857 23.25C42.5609 23.25 44 21.8109 44 20.0357C44 18.2605 42.5609 16.8214 40.7857 16.8214C39.0105 16.8214 37.5714 18.2605 37.5714 20.0357C37.5714 21.8109 39.0105 23.25 40.7857 23.25Z" fill="#356CF9"/>
<path d="M18.3597 26.6742C18.6165 26.5276 18.9436 26.6168 19.0904 26.8735L19.8634 28.2267L19.8929 28.1785V27C19.8903 25.5217 18.6926 24.324 17.2143 24.3214C15.7357 24.3232 14.5375 25.5214 14.5357 27V34.5C14.5356 35.1325 14.8172 35.7322 15.304 36.136L17.6965 31.9912L15.875 28.8005C15.7367 28.5446 15.8279 28.225 16.0805 28.0807C16.3331 27.9364 16.6547 28.02 16.805 28.269L18.7823 31.7298C19.0043 32.1164 19.4154 32.3555 19.8613 32.3571H23.6225C23.8499 32.3584 24.0668 32.262 24.2182 32.0924C24.3722 31.9231 24.4463 31.6958 24.4218 31.4683C24.3535 31.0418 23.9775 30.7334 23.5459 30.7499H20.6932C20.3087 30.7498 19.9538 30.5437 19.7632 30.2099L18.1603 27.4049C18.0137 27.1482 18.1029 26.8211 18.3597 26.6742Z" fill="#356CF9"/>
</g>
<defs>
<clipPath id="clip0_173_68">
<rect width="30" height="30" fill="white" transform="translate(14 12)"/>
</clipPath>
</defs>
</svg>
